# xmcd
#
# Track frame offsets: 
#        150
#        21320
#        38620
#        56186
#        75961
#        93933
#        109758
#        128969
#        147106
#        160746
#        180912
#
# Disc length: 2668 seconds
#
# Revision: 0
# Processed by: cddbd v1.5.2PL0 Copyright (c) Steve Scherf et al.
# Submitted via: ExactAudioCopyFreeDBPlugin 1.0
#
DISCID=800a6a0b
DTITLE=Sonny Landreth - Outward Bound
DYEAR=2008
DGENRE=Blues
TTITLE0=Soldier Of Fortune
TTITLE1=Back To Bayou Teche
TTITLE2=When You're Away
TTITLE3=Sacred Ground
TTITLE4=New Landlord
TTITLE5=Speak Of The Devil
TTITLE6=Yokamoma
TTITLE7=Planet Cannonball
TTITLE8=Common Law Love
TTITLE9=Bad Weather
TTITLE10=Outward Bound
EXTD=
EXTT0=
EXTT1=
EXTT2=
EXTT3=
EXTT4=
EXTT5=
EXTT6=
EXTT7=
EXTT8=
EXTT9=
EXTT10=
PLAYORDER=
